<?xml version="1.0" encoding="UTF-8" standalone="no"?>
<!-- Created with Inkscape (http://www.inkscape.org/) -->

<svg
   xmlns:dc="http://purl.org/dc/elements/1.1/"
   xmlns:cc="http://creativecommons.org/ns#"
   xmlns:rdf="http://www.w3.org/1999/02/22-rdf-syntax-ns#"
   xmlns:svg="http://www.w3.org/2000/svg"
   xmlns="http://www.w3.org/2000/svg"
   xmlns:xlink="http://www.w3.org/1999/xlink"
   xmlns:sodipodi="http://sodipodi.sourceforge.net/DTD/sodipodi-0.dtd"
   xmlns:inkscape="http://www.inkscape.org/namespaces/inkscape"
   version="1.1"
   width="24"
   height="24"
   id="svg2"
   style="display:inline"
   inkscape:version="0.48.2 r9819"
   sodipodi:docname="kopete.svg">
  <sodipodi:namedview
     pagecolor="#000000"
     bordercolor="#666666"
     borderopacity="1"
     objecttolerance="10"
     gridtolerance="10"
     guidetolerance="10"
     inkscape:pageopacity="0.2745098"
     inkscape:pageshadow="2"
     inkscape:window-width="1360"
     inkscape:window-height="713"
     id="namedview26"
     showgrid="false"
     inkscape:zoom="15.2"
     inkscape:cx="-10.55651"
     inkscape:cy="14.534473"
     inkscape:window-x="-2"
     inkscape:window-y="-3"
     inkscape:window-maximized="1"
     inkscape:current-layer="svg2"
     width="24px" />
  <defs
     id="defs4">
    <linearGradient
       id="linearGradient3760">
      <stop
         id="stop3770"
         style="stop-color:#000000;stop-opacity:1;"
         offset="0" />
      <stop
         id="stop3764"
         style="stop-color:#363636;stop-opacity:1;"
         offset="1" />
    </linearGradient>
    <linearGradient
       x1="13.4375"
       y1="901.64343"
       x2="288.625"
       y2="901.64343"
       id="linearGradient5098"
       xlink:href="#linearGradient3760"
       gradientUnits="userSpaceOnUse"
       gradientTransform="translate(10,-7.8571431)" />
    <linearGradient
       x1="71.016197"
       y1="817.80078"
       x2="207.81279"
       y2="954.17139"
       id="linearGradient4548"
       xlink:href="#linearGradient3760"
       gradientUnits="userSpaceOnUse"
       gradientTransform="translate(10,-7.8571431)" />
    <linearGradient
       inkscape:collect="always"
       xlink:href="#linearGradient3760"
       id="linearGradient3002"
       gradientUnits="userSpaceOnUse"
       gradientTransform="translate(10,-7.8571431)"
       x1="71.016197"
       y1="817.80078"
       x2="207.81279"
       y2="954.17139" />
    <linearGradient
       inkscape:collect="always"
       xlink:href="#linearGradient3760"
       id="linearGradient3007"
       gradientUnits="userSpaceOnUse"
       gradientTransform="matrix(0.99618647,0,0,0.99618647,9.5447085,-5.8427967)"
       x1="284.10953"
       y1="787.86206"
       x2="283.54016"
       y2="1019.3322" />
    <linearGradient
       inkscape:collect="always"
       xlink:href="#linearGradient3760"
       id="linearGradient3782"
       gradientUnits="userSpaceOnUse"
       gradientTransform="matrix(0.07471399,0,0,0.07471399,0.71585314,-55.365374)"
       x1="284.10953"
       y1="787.86206"
       x2="283.54016"
       y2="1019.3322" />
    <linearGradient
       inkscape:collect="always"
       xlink:href="#linearGradient3760"
       id="linearGradient3790"
       gradientUnits="userSpaceOnUse"
       gradientTransform="matrix(0.07471399,0,0,0.07471399,0.71585314,-55.365374)"
       x1="284.10953"
       y1="787.86206"
       x2="283.54016"
       y2="1019.3322" />
  </defs>
  <metadata
     id="metadata7">
    <rdf:RDF>
      <cc:Work
         rdf:about="">
        <dc:format>image/svg+xml</dc:format>
        <dc:type
           rdf:resource="http://purl.org/dc/dcmitype/StillImage" />
        <dc:title />
      </cc:Work>
    </rdf:RDF>
  </metadata>
  <g
     transform="translate(0,-1028.3621)"
     id="layer1"
     style="display:none">
    <g
       id="kopete-offline">
      <rect
         width="320"
         height="320"
         x="0"
         y="732.36218"
         id="rect7490"
         style="fill:none;stroke:none" />
      <path
         d="m 161.03125,777.81752 c -73.920672,0 -133.843751,44.65818 -133.843751,99.75 0,55.09183 59.923079,99.75 133.843751,99.75 14.26333,0 27.98381,-1.63909 40.875,-4.71875 l 55.65625,37.15623 4.3125,-66.62498 c 20.53455,-17.5325 33,-40.46216 33,-65.5625 0,-55.09182 -59.92308,-99.75 -133.84375,-99.75 z"
         id="path2985"
         style="fill:url(#linearGradient3002);fill-opacity:1;stroke:none"
         inkscape:connector-curvature="0" />
      <path
         d="m 161.03125,765.53125 c -39.43251,0 -75.348877,11.81732 -101.96875,31.65625 -26.619873,19.83893 -44.15625,48.37816 -44.15625,80.375 0,31.99684 17.536377,60.53607 44.15625,80.375 26.619873,19.83893 62.53624,31.65625 101.96875,31.65625 13.25244,0 26.06078,-1.40591 38.3125,-3.9375 L 250.75,1019.9688 a 12.277456,12.277456 0 0 0 19.0625,-9.4376 l 4,-61.7812 c 20.352,-18.97511 33.34375,-43.80557 33.34375,-71.1875 0,-31.99684 -17.53638,-60.53607 -44.15625,-80.375 -26.61987,-19.83893 -62.53624,-31.65625 -101.96875,-31.65625 z"
         id="path5092"
         style="fill:none;stroke:#000000;stroke-width:25;stroke-miterlimit:4;stroke-opacity:0.39215686;stroke-dasharray:none"
         inkscape:connector-curvature="0" />
      <path
         d="m 161.03125,785.59375 c -35.39488,0 -67.298278,10.73739 -90,27.65625 -22.701722,16.91886 -36.0625,39.58505 -36.0625,64.3125 0,24.72745 13.360778,47.39364 36.0625,64.3125 22.701722,16.91886 54.60512,27.65625 90,27.65625 13.66778,0 26.77746,-1.56515 39.0625,-4.5 a 7.7744576,7.7744576 0 0 1 6.125,1.09375 l 44.46875,29.6875 3.4375,-53.1875 a 7.7744576,7.7744576 0 0 1 2.6875,-5.40625 c 19.17061,-16.36796 30.28125,-37.12964 30.28125,-59.65625 0,-24.72745 -13.36078,-47.39364 -36.0625,-64.3125 -22.70172,-16.91886 -54.60512,-27.65625 -90,-27.65625 z"
         id="path5096"
         style="fill:none;stroke:#ffffff;stroke-width:16;stroke-miterlimit:4;stroke-opacity:0.78431373;stroke-dasharray:none"
         inkscape:connector-curvature="0" />
      <path
         d="m 195.90625,831.65625 a 7.1690284,7.1690284 0 0 0 -4.53125,2.0625 l -32.1875,32.25 -32.78125,-31.625 A 7.1690284,7.1690284 0 0 0 116.375,844.5625 L 148.59375,876.75 117,909.53125 a 7.1690284,7.1690284 0 0 0 10.21875,10.03125 l 32.15625,-32.21875 32.8125,31.59375 a 7.1690284,7.1690284 0 0 0 10.03125,-10.21875 l -32.25,-32.15625 31.625,-32.8125 a 7.1690284,7.1690284 0 0 0 -5.6875,-12.09375 z"
         id="path5107"
         style="fill:none;stroke:#ffffff;stroke-width:16;stroke-linecap:butt;stroke-miterlimit:4;stroke-opacity:0.78431373;stroke-dashoffset:0"
         inkscape:connector-curvature="0" />
      <path
         d="m 159.28571,877.30956 -37.14285,37.19549 36.48118,-37.85716 -37.19549,-37.14285 37.85716,36.48118 37.14284,-37.19549 -36.48117,37.85716 37.19549,37.14285 z"
         id="path5100"
         style="fill:none;stroke:#000000;stroke-width:16;stroke-linecap:butt;stroke-miterlimit:4;stroke-opacity:0.78431373;stroke-dashoffset:0"
         inkscape:connector-curvature="0" />
    </g>
  </g>
  <g
     id="kopete"
     inkscape:label="#g3792">
    <rect
       style="fill:none;stroke:none"
       id="rect4552"
       y="-3.0371092e-07"
       x="0"
       height="24"
       width="24" />
    <g
       transform="translate(-3.5e-7,-0.49975465)"
       id="g3786">
      <path
         inkscape:connector-curvature="0"
         style="opacity:0.6;fill:#ffffff;fill-opacity:1;stroke:none"
         id="path3777"
         d="m 12,4.3350227 c -5.5229081,0 -10.0000002,3.3365911 -10.0000002,7.4527203 0,4.11613 4.4770921,7.452722 10.0000002,7.452722 1.065671,0 2.090782,-0.122467 3.053934,-0.352558 l 4.158301,2.776091 0.322203,-4.977819 c 1.534218,-1.309923 2.465563,-3.02309 2.465563,-4.898436 C 22.000001,7.6716137 17.522908,4.3350227 12,4.3350227 z" />
      <path
         d="m 12,3.3355113 c -5.5229083,0 -10.0000003,3.336591 -10.0000003,7.4527197 0,4.116131 4.477092,7.45272 10.0000003,7.45272 1.065671,0 2.090782,-0.122463 3.053934,-0.352556 l 4.158301,2.776094 0.322203,-4.977822 c 1.534218,-1.309923 2.465563,-3.023089 2.465563,-4.898436 C 22.000001,6.6721023 17.522908,3.3355113 12,3.3355113 z"
         id="path4554"
         style="opacity:0.7;fill:url(#linearGradient3790);fill-opacity:1;stroke:none"
         inkscape:connector-curvature="0" />
    </g>
  </g>
</svg>
